<svg width="20" height="20" viewBox="0 0 20 20" fill="none" xmlns="http://www.w3.org/2000/svg">
<path d="M13.7287 4.50677L15.4937 6.27093L13.7287 4.50677ZM14.8637 2.9526L10.0912 7.7251C9.84457 7.97135 9.67639 8.28509 9.60783 8.62677L9.16699 10.8334L11.3737 10.3918C11.7153 10.3234 12.0287 10.1559 12.2753 9.90927L17.0478 5.13677C17.1912 4.99335 17.305 4.82309 17.3826 4.63571C17.4602 4.44833 17.5002 4.2475 17.5002 4.04468C17.5002 3.84186 17.4602 3.64103 17.3826 3.45365C17.305 3.26627 17.1912 3.09601 17.0478 2.9526C16.9044 2.80919 16.7342 2.69542 16.5468 2.61781C16.3594 2.54019 16.1586 2.50024 15.9557 2.50024C15.7529 2.50024 15.5521 2.54019 15.3647 2.61781C15.1773 2.69542 15.0071 2.80919 14.8637 2.9526V2.9526Z" stroke="#2E73B9" stroke-width="1.5" stroke-linecap="round" stroke-linejoin="round"/>
<path d="M15.8335 12.5001V15.0001C15.8335 15.4421 15.6579 15.866 15.3453 16.1786C15.0328 16.4912 14.6089 16.6667 14.1668 16.6667H5.00016C4.55814 16.6667 4.13421 16.4912 3.82165 16.1786C3.50909 15.866 3.3335 15.4421 3.3335 15.0001V5.83341C3.3335 5.39139 3.50909 4.96746 3.82165 4.6549C4.13421 4.34234 4.55814 4.16675 5.00016 4.16675H7.50016" stroke="#2E73B9" stroke-width="1.5" stroke-linecap="round" stroke-linejoin="round"/>
</svg>
